<?xml version="1.0" encoding="utf-8"?>
<!-- Generator: Adobe Illustrator 23.0.0, SVG Export Plug-In . SVG Version: 6.00 Build 0)  -->
<svg version="1.1" id="圖層_1" xmlns="http://www.w3.org/2000/svg" xmlns:xlink="http://www.w3.org/1999/xlink" x="0px" y="0px"
	 viewBox="0 0 117.25 142.72" style="enable-background:new 0 0 117.25 142.72;" xml:space="preserve">
<style type="text/css">
	.st0{fill:none;stroke:#FFFFFF;stroke-width:3;stroke-miterlimit:10;}
	.st1{fill:none;stroke:#FFFFFF;stroke-width:5;stroke-miterlimit:10;}
	.st2{fill:none;stroke:#FFFFFF;stroke-width:5;stroke-linecap:round;stroke-miterlimit:10;}
</style>
<path class="st0" d="M63.1,46.78"/>
<path class="st0" d="M25.1,32.07"/>
<g>
	<path d="M18.56,24.69v111.06c0,3.85,3.12,6.97,6.97,6.97h84.74c3.85,0,6.97-3.12,6.97-6.97l0-92.76c0,0,0.82-23.51-20.9-25.25
		c-0.21-0.02-0.42-0.02-0.62-0.02H25.53C21.68,17.72,18.56,20.84,18.56,24.69z"/>
	<path class="st1" d="M93.47,17.72v26.24c0,0.68,0.54,1.23,1.2,1.24h22.57"/>
	<line class="st2" x1="39.09" y1="80.22" x2="95.53" y2="80.22"/>
	<line class="st2" x1="39.69" y1="104.62" x2="96.12" y2="104.62"/>
</g>
<circle cx="27.91" cy="27.91" r="27.91"/>
<g>
	<line class="st2" x1="16.04" y1="25.42" x2="40.69" y2="25.42"/>
	<line class="st2" x1="28.36" y1="11.58" x2="28.36" y2="39.48"/>
</g>
</svg>
